<svg width="22" height="18" viewBox="0 0 22 18" fill="none" xmlns="http://www.w3.org/2000/svg">
<path d="M14.9999 18H6.99992C6.73471 18 6.48035 17.8946 6.29282 17.7071C6.10528 17.5196 5.99992 17.2652 5.99992 17V9.07L4.69992 10.07C4.60741 10.1627 4.49752 10.2363 4.37655 10.2864C4.25558 10.3366 4.12589 10.3624 3.99492 10.3624C3.86396 10.3624 3.73427 10.3366 3.6133 10.2864C3.49233 10.2363 3.38244 10.1627 3.28992 10.07L0.459925 7.29C0.367221 7.19749 0.293673 7.0876 0.243492 6.96662C0.193311 6.84565 0.16748 6.71597 0.16748 6.585C0.16748 6.45403 0.193311 6.32435 0.243492 6.20338C0.293673 6.0824 0.367221 5.97251 0.459925 5.88L6.33992 0H7.99992C7.99992 1.1 9.33992 2 10.9999 2C12.6599 2 13.9999 1.1 13.9999 0H15.6599L21.5399 5.88C21.9299 6.27 21.9299 6.9 21.5399 7.29L18.7099 10.12C18.3199 10.5 17.6899 10.5 17.2999 10.12L15.9999 9.12V17C15.9999 17.2652 15.8946 17.5196 15.707 17.7071C15.5195 17.8946 15.2651 18 14.9999 18Z" fill="#254669"/>
</svg>
