<svg width="42" height="38" viewBox="0 0 42 38" fill="none" xmlns="http://www.w3.org/2000/svg">
<path d="M26.8333 20.6667C26.8333 24.0724 24.0724 26.8333 20.6667 26.8333C17.2609 26.8333 14.5 24.0724 14.5 20.6667C14.5 17.2609 17.2609 14.5 20.6667 14.5C24.0724 14.5 26.8333 17.2609 26.8333 20.6667Z" fill="white" stroke="#3F3C3C"/>
<path d="M10.7708 4.66667H10.9911L11.1397 4.50419L14.8036 0.5H26.8631L30.527 4.50419L30.6756 4.66667H30.8958H37.5C39.5155 4.66667 41.1667 6.31781 41.1667 8.33333V33.3333C41.1667 35.3489 39.5155 37 37.5 37H4.16667C2.15114 37 0.5 35.3489 0.5 33.3333V8.33333C0.5 6.31781 2.15114 4.66667 4.16667 4.66667H10.7708ZM9.91667 20.8333C9.91667 26.8595 14.8072 31.75 20.8333 31.75C26.8595 31.75 31.75 26.8595 31.75 20.8333C31.75 14.8072 26.8595 9.91667 20.8333 9.91667C14.8072 9.91667 9.91667 14.8072 9.91667 20.8333Z" fill="white" stroke="#3F3C3C"/>
</svg>

