<svg width="38" height="38" viewBox="0 0 38 38" fill="none" xmlns="http://www.w3.org/2000/svg">
<path d="M32.9997 1H4.99996C2.79085 1 1 2.79086 1 5V33C1 35.2091 2.79085 37 4.99996 37H32.9997C35.2088 37 36.9997 35.2091 36.9997 33V5C36.9997 2.79086 35.2088 1 32.9997 1Z" stroke="#3F3C3C" stroke-linecap="round" stroke-linejoin="round"/>
<path d="M12 15C13.6568 15 14.9999 13.6569 14.9999 12C14.9999 10.3431 13.6568 9 12 9C10.3431 9 9 10.3431 9 12C9 13.6569 10.3431 15 12 15Z" stroke="#3F3C3C" stroke-linecap="round" stroke-linejoin="round"/>
<path d="M36.9997 25L26.9998 15L5 37" stroke="#3F3C3C" stroke-linecap="round" stroke-linejoin="round"/>
</svg>

