<svg width="20" height="18" viewBox="0 0 20 18" fill="none" xmlns="http://www.w3.org/2000/svg">
<path d="M14.3923 11.3208H13.5275L13.221 11.0429C14.2937 9.86964 14.9396 8.34648 14.9396 6.68954C14.9396 2.99485 11.7541 0 7.82434 0C3.89454 0 0.709106 2.99485 0.709106 6.68954C0.709106 10.3842 3.89454 13.3791 7.82434 13.3791C9.58673 13.3791 11.2068 12.7719 12.4547 11.7633L12.7503 12.0515V12.8645L18.2235 18L19.8546 16.4666L14.3923 11.3208ZM7.82434 11.3208C5.09866 11.3208 2.89841 9.25214 2.89841 6.68954C2.89841 4.12693 5.09866 2.05832 7.82434 2.05832C10.55 2.05832 12.7503 4.12693 12.7503 6.68954C12.7503 9.25214 10.55 11.3208 7.82434 11.3208Z" fill="#505050"/>
</svg>
