<svg width="22" height="22" viewBox="0 0 22 22" fill="none" xmlns="http://www.w3.org/2000/svg">
<path d="M16.7061 11.2753L14.4374 12.8909C14.4374 12.8909 13.303 9.7284 12.4436 7.70027C12.0999 6.87527 10.9999 6.60028 10.4843 5.43152C9.59052 3.43777 10.6561 1.71903 11.6874 2.95653C12.8905 4.40027 14.678 5.4659 15.0561 6.2909C15.6405 7.6659 16.7061 11.2753 16.7061 11.2753Z" fill="#F5617F"/>
<path d="M18.4936 12.5812C18.6655 13.6812 18.528 15.3656 17.5655 17.3594C17.5655 17.3594 15.6061 15.0219 15.3655 13.9219C15.3655 13.9219 14.8155 9.83124 14.2311 7.21874C13.9905 6.15312 12.753 5.53437 12.4436 4.02187C11.8936 1.40937 13.5436 -0.412506 14.5061 1.34062C15.6061 3.36874 17.4623 5.08749 17.703 6.15312C18.1155 7.97499 18.2873 11 18.4936 12.5812Z" fill="#F5617F"/>
<path d="M15.6064 10.5188C15.6064 10.5188 15.4345 8.97188 14.8501 6.35938C14.6095 5.29375 13.372 4.675 13.0626 3.1625C12.8564 2.26875 12.9251 1.44375 13.1657 0.859375C12.5814 1.30625 12.1001 2.54375 12.4095 4.05625C12.7189 5.56875 13.9907 6.1875 14.197 7.25313C14.4376 8.3875 14.6439 9.55625 14.6439 9.55625L12.9251 8.90312L15.6064 10.5188Z" fill="#F5617F"/>
<path d="M17.6688 12.1686C15.4001 10.1061 12.8563 8.83427 11.2063 8.04365C8.7657 6.84052 9.41883 8.49052 5.25945 9.59052C4.70945 9.72802 4.05633 10.1405 4.57195 11.1718C5.0532 12.1686 8.97195 11.4124 9.5907 10.828C9.5907 10.828 11.2407 12.8561 12.8907 12.7874C12.8907 12.7874 12.6157 14.128 12.9938 14.7811C12.9938 14.7811 10.6563 15.9843 9.65945 17.0499L6.90945 15.1936C6.7032 12.3405 6.18758 11.4811 4.7782 11.6186C3.47195 11.7561 3.60945 12.9936 3.64383 13.9905C3.6782 15.8124 3.19695 16.1218 3.64383 16.8436C5.3282 19.5936 7.49383 21.3124 11.4813 21.3124C12.9595 21.3124 13.9219 21.278 14.8501 20.8311C16.3626 20.0405 20.1782 14.4718 17.6688 12.1686Z" fill="#F5617F"/>
<path d="M18.1156 12.7188C18.975 15.3312 15.9156 19.6281 14.575 20.2812C13.6469 20.7281 12.7188 20.7625 11.2063 20.7625C7.25312 20.7625 5.12188 19.0781 3.4375 16.3625C3.47188 16.5 3.54063 16.6719 3.60938 16.8094C5.32813 19.5938 7.49375 21.3125 11.4813 21.3125C12.9594 21.3125 13.9219 21.2781 14.85 20.8312C16.2594 20.1094 19.6625 15.2625 18.1156 12.7188Z" fill="#F5617F"/>
<path d="M6.3937 15.2621C6.3937 15.2621 8.97183 16.9121 9.59058 17.0152L6.87495 15.1934C6.97808 12.3059 6.15308 11.3777 4.7437 11.6184C4.64058 11.6527 4.53745 11.6527 4.43433 11.6871C5.8437 11.5152 6.49683 12.4434 6.3937 15.2621Z" fill="#F5617F"/>
<path d="M9.59054 10.8281C9.59054 10.8281 11.2405 12.8219 12.8905 12.7875V12.4094C11.2405 12.4437 9.59054 10.45 9.59054 10.45C8.97179 11.0687 5.05304 11.825 4.57179 10.7937C4.50304 10.6219 4.43429 10.45 4.39992 10.3125C4.36554 10.5187 4.39992 10.7937 4.57179 11.1719C5.05304 12.1687 8.97179 11.4125 9.59054 10.8281Z" fill="#F5617F"/>
</svg>
