<svg width="30" height="30" viewBox="0 0 30 30" fill="none" xmlns="http://www.w3.org/2000/svg">
<path d="M20.7062 15.275L18.4375 16.8906C18.4375 16.8906 17.3031 13.7281 16.4437 11.7C16.1 10.875 15 10.6 14.4844 9.43124C13.5906 7.43749 14.6562 5.71874 15.6875 6.95624C16.8906 8.39999 18.6781 9.46562 19.0562 10.2906C19.6406 11.6656 20.7062 15.275 20.7062 15.275" fill="#F5617F"/>
<path d="M22.4937 16.5812C22.6656 17.6812 22.5281 19.3656 21.5656 21.3594C21.5656 21.3594 19.6062 19.0219 19.3656 17.9219C19.3656 17.9219 18.8156 13.8312 18.2312 11.2187C17.9906 10.1531 16.7531 9.53437 16.4437 8.02187C15.8937 5.40937 17.5437 3.58749 18.5062 5.34062C19.6062 7.36874 21.4625 9.08749 21.7031 10.1531C22.1156 11.975 22.2875 15 22.4937 16.5812" fill="#F5617F"/>
<path d="M19.6062 14.5188C19.6062 14.5188 19.4344 12.9719 18.85 10.3594C18.6094 9.29375 17.3719 8.675 17.0625 7.1625C16.8562 6.26875 16.925 5.44375 17.1656 4.85938C16.5812 5.30625 16.1 6.54375 16.4094 8.05625C16.7187 9.56875 17.9906 10.1875 18.1969 11.2531C18.4375 12.3875 18.6437 13.5562 18.6437 13.5562L16.925 12.9031L19.6062 14.5188" fill="#F5617F"/>
<path d="M21.6688 16.1688C19.4 14.1063 16.8563 12.8344 15.2063 12.0438C12.7656 10.8406 13.4188 12.4906 9.25939 13.5906C8.70939 13.7281 8.05627 14.1406 8.57189 15.1719C9.05314 16.1688 12.9719 15.4125 13.5906 14.8281C13.5906 14.8281 15.2406 16.8563 16.8906 16.7875C16.8906 16.7875 16.6156 18.1281 16.9938 18.7813C16.9938 18.7813 14.6563 19.9844 13.6594 21.05L10.9094 19.1938C10.7031 16.3406 10.1875 15.4813 8.77814 15.6188C7.47189 15.7563 7.60939 16.9938 7.64377 17.9906C7.67814 19.8125 7.19689 20.1219 7.64377 20.8438C9.32814 23.5938 11.4938 25.3125 15.4813 25.3125C16.9594 25.3125 17.9219 25.2781 18.85 24.8313C20.3625 24.0406 24.1781 18.4719 21.6688 16.1688" fill="#F5617F"/>
<path d="M22.1156 16.7188C22.975 19.3312 19.9156 23.6281 18.575 24.2812C17.6469 24.7281 16.7188 24.7625 15.2063 24.7625C11.2531 24.7625 9.12188 23.0781 7.4375 20.3625C7.47188 20.5 7.54063 20.6719 7.60938 20.8094C9.32813 23.5938 11.4938 25.3125 15.4813 25.3125C16.9594 25.3125 17.9219 25.2781 18.85 24.8312C20.2594 24.1094 23.6625 19.2625 22.1156 16.7188Z" fill="#F5617F"/>
<path d="M10.3938 19.2625C10.3938 19.2625 12.9719 20.9125 13.5906 21.0156L10.875 19.1937C10.9781 16.3062 10.1531 15.3781 8.74376 15.6187C8.64064 15.6531 8.53751 15.6531 8.43439 15.6875C9.84376 15.5156 10.4969 16.4437 10.3938 19.2625" fill="#F5617F"/>
<path d="M13.5906 14.8281C13.5906 14.8281 15.2406 16.8219 16.8906 16.7875V16.4094C15.2406 16.4437 13.5906 14.45 13.5906 14.45C12.9719 15.0687 9.05313 15.825 8.57188 14.7937C8.50313 14.6219 8.43438 14.45 8.40001 14.3125C8.36563 14.5187 8.40001 14.7937 8.57188 15.1719C9.05313 16.1687 12.9719 15.4125 13.5906 14.8281Z" fill="#F5617F"/>
<circle opacity="0.2" cx="15" cy="15" r="15" fill="#F5617F"/>
</svg>
