<svg width="112" height="112" viewBox="0 0 112 112" fill="none" xmlns="http://www.w3.org/2000/svg">
<rect width="112" height="112" fill="#C4C4C4"/>
<path d="M108.614 5.88365L107.354 7.14425C107.225 7.27277 107.017 7.27277 106.889 7.14425L103.854 4.10897C103.725 3.98045 103.725 3.77263 103.854 3.64411L105.114 2.38351C105.626 1.87216 106.457 1.87216 106.971 2.38351L108.614 4.02694C109.129 4.53828 109.129 5.36957 108.614 5.88365ZM102.771 4.72696L95.59 11.9077L95.0103 15.2301C94.931 15.6786 95.322 16.0669 95.7705 15.9903L99.0929 15.4079L106.274 8.2271C106.402 8.09858 106.402 7.89076 106.274 7.76224L103.238 4.72696C103.107 4.59844 102.899 4.59844 102.771 4.72696ZM98.3929 11.2925C98.2425 11.1421 98.2425 10.9014 98.3929 10.751L102.604 6.53993C102.754 6.38953 102.995 6.38953 103.145 6.53993C103.296 6.69032 103.296 6.93096 103.145 7.08135L98.9343 11.2925C98.7839 11.4429 98.5433 11.4429 98.3929 11.2925ZM97.4057 13.5922H98.7183V14.5848L96.9545 14.8938L96.1041 14.0434L96.4131 12.2796H97.4057V13.5922Z" fill="black"/>
<path d="M59.5 53.5C67.0969 53.5 73.25 47.3469 73.25 39.75C73.25 32.1531 67.0969 26 59.5 26C51.9031 26 45.75 32.1531 45.75 39.75C45.75 47.3469 51.9031 53.5 59.5 53.5ZM59.5 60.375C50.3219 60.375 32 64.9813 32 74.125V81H87V74.125C87 64.9813 68.6781 60.375 59.5 60.375Z" fill="#494949"/>
</svg>
