<svg width="22" height="22" viewBox="0 0 22 22" fill="none" xmlns="http://www.w3.org/2000/svg">
<path fill-rule="evenodd" clip-rule="evenodd" d="M11 11C13.0259 11 14.6667 9.35917 14.6667 7.33333C14.6667 5.3075 13.0259 3.66667 11 3.66667C8.97419 3.66667 7.33335 5.3075 7.33335 7.33333C7.33335 9.35917 8.97419 11 11 11ZM15.5834 7.33333C15.5834 9.86563 13.5323 11.9167 11 11.9167C8.46773 11.9167 6.41669 9.86563 6.41669 7.33333C6.41669 4.80104 8.46773 2.75 11 2.75C13.5323 2.75 15.5834 4.80104 15.5834 7.33333Z" fill="black"/>
<path fill-rule="evenodd" clip-rule="evenodd" d="M4.22721 15.6804C3.7675 16.0517 3.66667 16.3299 3.66667 16.4999V18.3333H18.3333V16.4999C18.3333 16.3303 18.2325 16.0512 17.7723 15.6804C17.3232 15.3179 16.6531 14.9723 15.8409 14.6735C14.2175 14.0763 12.2618 13.7499 11 13.7499C9.73821 13.7499 7.7825 14.0763 6.15908 14.6735C5.34692 14.9723 4.67683 15.3179 4.22721 15.6804ZM11 12.8333C8.24633 12.8333 2.75 14.2243 2.75 16.4999V19.2499H19.25V16.4999C19.25 14.2243 13.7537 12.8333 11 12.8333Z" fill="black"/>
</svg>
