<svg width="22" height="22" viewBox="0 0 22 22" fill="none" xmlns="http://www.w3.org/2000/svg">
<path fill-rule="evenodd" clip-rule="evenodd" d="M7.79165 10.9999C9.56402 10.9999 11 9.56396 11 7.79159C11 6.01921 9.56402 4.58325 7.79165 4.58325C6.01927 4.58325 4.58331 6.01921 4.58331 7.79159C4.58331 9.56396 6.01927 10.9999 7.79165 10.9999ZM10.0833 7.79159C10.0833 9.05796 9.05802 10.0833 7.79165 10.0833C6.52527 10.0833 5.49998 9.05796 5.49998 7.79159C5.49998 6.52521 6.52527 5.49992 7.79165 5.49992C9.05802 5.49992 10.0833 6.52521 10.0833 7.79159Z" fill="black"/>
<path fill-rule="evenodd" clip-rule="evenodd" d="M1.83331 17.4165V14.8498C1.83331 12.8992 5.80294 11.9165 7.79165 11.9165C9.1144 11.9165 11.3139 12.3515 12.6385 13.2168C13.5827 12.9615 14.6181 12.8332 15.3541 12.8332C16.2057 12.8332 17.3484 13.0046 18.2921 13.3511C18.7623 13.5243 19.2129 13.7517 19.5534 14.0459C19.8967 14.3425 20.1666 14.7435 20.1666 15.2468V17.4165H1.83331ZM2.74998 14.8498C2.74998 14.7045 2.8169 14.5056 3.10106 14.2471C3.39119 13.9831 3.8376 13.7274 4.40273 13.5046C5.53527 13.0578 6.91027 12.8332 7.79165 12.8332C8.67302 12.8332 10.0485 13.0578 11.1801 13.5046C11.7457 13.7274 12.1921 13.9831 12.4818 14.2471C12.7664 14.5056 12.8333 14.7045 12.8333 14.8498V16.4998H2.74998V14.8498ZM13.4534 13.9653C14.1469 13.8218 14.8422 13.7498 15.3541 13.7498C16.109 13.7498 17.143 13.9057 17.9758 14.2118C18.3924 14.3649 18.7293 14.5455 18.9544 14.7398C19.1766 14.9319 19.25 15.1005 19.25 15.2472V16.4998H13.75V14.8498C13.75 14.529 13.6423 14.2334 13.4534 13.9653Z" fill="black"/>
<path fill-rule="evenodd" clip-rule="evenodd" d="M17.875 9.39583C17.875 10.7887 16.747 11.9167 15.3541 11.9167C15.0231 11.9167 14.6953 11.8516 14.3894 11.7249C14.0835 11.5982 13.8056 11.4126 13.5715 11.1785C13.3374 10.9444 13.1517 10.6665 13.0251 10.3606C12.8984 10.0547 12.8333 9.72689 12.8333 9.39583C12.8333 8.00296 13.9613 6.875 15.3541 6.875C16.747 6.875 17.875 8.00296 17.875 9.39583ZM15.3541 11C16.2406 11 16.9583 10.2823 16.9583 9.39583C16.9583 8.50942 16.2406 7.79167 15.3541 7.79167C15.1435 7.79155 14.9348 7.83296 14.7401 7.91353C14.5454 7.99411 14.3685 8.11226 14.2196 8.26125C14.0706 8.41023 13.9524 8.58712 13.8718 8.7818C13.7913 8.97648 13.7499 9.18514 13.75 9.39583C13.75 10.2823 14.4677 11 15.3541 11Z" fill="black"/>
</svg>
