<svg width="22" height="22" viewBox="0 0 22 22" fill="none" xmlns="http://www.w3.org/2000/svg">
<path d="M18.3333 10.0833C18.3333 8.13841 17.5607 6.27315 16.1854 4.89788C14.8101 3.52262 12.9449 2.75 11 2.75C9.05504 2.75 7.18978 3.52262 5.81451 4.89788C4.43924 6.27315 3.66663 8.13841 3.66663 10.0833" stroke="black" stroke-linecap="round" stroke-linejoin="round"/>
<path d="M1.83331 14.1515V12.4319C1.83337 12.023 1.97008 11.626 2.22171 11.3037C2.47334 10.9815 2.82544 10.7527 3.22206 10.6535L4.81706 10.2539C4.89811 10.2337 4.98269 10.2322 5.06439 10.2496C5.14609 10.267 5.22275 10.3027 5.28857 10.3541C5.35439 10.4055 5.40764 10.4713 5.44427 10.5463C5.4809 10.6214 5.49995 10.7038 5.49998 10.7874V15.7951C5.50012 15.8788 5.48116 15.9614 5.44454 16.0367C5.40792 16.112 5.3546 16.1779 5.28865 16.2294C5.2227 16.281 5.14586 16.3168 5.06398 16.3341C4.98209 16.3515 4.89733 16.3499 4.81615 16.3295L3.22115 15.9308C2.82469 15.8315 2.4728 15.6025 2.22135 15.2803C1.9699 14.9581 1.83332 14.5611 1.83331 14.1524V14.1515Z" stroke="black"/>
<path d="M20.1667 14.1515V12.4319C20.1666 12.023 20.0299 11.626 19.7783 11.3037C19.5266 10.9815 19.1745 10.7527 18.7779 10.6535L17.1829 10.2539C17.1019 10.2337 17.0173 10.2322 16.9356 10.2496C16.8539 10.267 16.7772 10.3027 16.7114 10.3541C16.6456 10.4055 16.5923 10.4713 16.5557 10.5463C16.5191 10.6214 16.5 10.7038 16.5 10.7874V15.7951C16.4999 15.8787 16.5188 15.9612 16.5554 16.0364C16.592 16.1116 16.6452 16.1774 16.711 16.229C16.7769 16.2805 16.8536 16.3163 16.9354 16.3337C17.0171 16.3512 17.1018 16.3497 17.1829 16.3295L18.7779 15.9308C19.1745 15.8316 19.5266 15.6028 19.7783 15.2805C20.0299 14.9583 20.1666 14.5603 20.1667 14.1515Z" stroke="black"/>
<path d="M18.3333 16.5V16.9583C18.3333 17.4446 18.1401 17.9109 17.7963 18.2547C17.4525 18.5985 16.9862 18.7917 16.5 18.7917H13.2916" stroke="black"/>
<path d="M12.375 20.1667H9.625C9.26033 20.1667 8.91059 20.0219 8.65273 19.764C8.39487 19.5062 8.25 19.1564 8.25 18.7917C8.25 18.4271 8.39487 18.0773 8.65273 17.8195C8.91059 17.5616 9.26033 17.4167 9.625 17.4167H12.375C12.7397 17.4167 13.0894 17.5616 13.3473 17.8195C13.6051 18.0773 13.75 18.4271 13.75 18.7917C13.75 19.1564 13.6051 19.5062 13.3473 19.764C13.0894 20.0219 12.7397 20.1667 12.375 20.1667Z" stroke="black"/>
</svg>
